<?xml version="1.0" standalone="no"?>
<!DOCTYPE svg PUBLIC "-//W3C//DTD SVG 20010904//EN"
 "http://www.w3.org/TR/2001/REC-SVG-20010904/DTD/svg10.dtd">
<svg version="1.0" xmlns="http://www.w3.org/2000/svg"
 width="50.000000pt" height="50.000000pt" viewBox="0 0 50.000000 50.000000"
 preserveAspectRatio="xMidYMid meet">

<g transform="translate(0.000000,50.000000) scale(0.100000,-0.100000)"
fill="#000000" stroke="none">
<path d="M225 470 c-4 -6 -15 -8 -25 -5 -27 8 -63 -13 -56 -32 4 -9 1 -22 -6
-30 -23 -28 -19 -71 10 -100 15 -16 33 -28 40 -29 6 -1 17 -2 22 -2 6 -1 10
-29 10 -63 0 -37 -4 -58 -10 -54 -5 3 -10 21 -10 39 0 42 -17 56 -59 51 -39
-5 -36 -3 -44 -36 -5 -18 -1 -33 11 -46 19 -21 62 -28 62 -11 0 6 11 1 25 -12
30 -28 33 -60 5 -67 -13 -3 -20 -14 -20 -29 0 -23 3 -24 70 -24 67 0 70 1 70
24 0 15 -7 26 -20 29 -11 3 -20 9 -20 14 0 14 42 36 49 25 10 -16 45 -10 63
11 12 13 16 28 11 46 -8 33 -5 31 -44 36 -41 5 -59 -9 -59 -46 0 -15 -5 -31
-10 -34 -7 -5 -10 21 -8 77 3 74 5 83 22 81 28 -2 58 32 65 74 6 33 3 42 -24
69 -42 42 -107 65 -120 44z m73 -30 c6 0 12 -7 12 -15 0 -8 9 -19 20 -25 24
-13 28 -60 5 -60 -8 0 -14 -6 -13 -12 2 -8 -11 -14 -32 -16 -19 -2 -40 -8 -47
-13 -7 -7 -24 -4 -49 8 -28 13 -38 25 -40 45 -1 15 2 30 7 33 5 4 9 17 9 30 0
20 6 24 38 28 20 2 46 3 57 1 11 -2 26 -4 33 -4z m-17 -382 c21 -18 20 -18
-32 -18 -51 0 -53 1 -31 16 20 14 22 23 22 113 0 132 14 139 18 9 2 -91 5
-105 23 -120z m-110 140 c-9 -25 -21 -31 -39 -20 -16 11 -6 40 16 45 26 5 32
-1 23 -25z m204 -36 c5 -14 -10 -31 -28 -32 -9 0 -26 42 -21 52 7 11 42 -3 49
-20z"/>
</g>
</svg>
